<svg width="60" height="36" viewBox="0 0 60 36" fill="none" xmlns="http://www.w3.org/2000/svg">
<path d="M51 1H9C7.34315 1 6 2.34315 6 4V32C6 33.6569 7.34315 35 9 35H51C52.6569 35 54 33.6569 54 32V4C54 2.34315 52.6569 1 51 1Z" stroke="#8B2FE8" stroke-width="2"/>
<path d="M6 23C8.76142 23 11 20.7614 11 18C11 15.2386 8.76142 13 6 13C3.23858 13 1 15.2386 1 18C1 20.7614 3.23858 23 6 23Z" fill="#0D0A1A" stroke="#8B2FE8" stroke-width="2"/>
<path d="M54 23C56.7614 23 59 20.7614 59 18C59 15.2386 56.7614 13 54 13C51.2386 13 49 15.2386 49 18C49 20.7614 51.2386 23 54 23Z" fill="#0D0A1A" stroke="#8B2FE8" stroke-width="2"/>
</svg>
